#!OML:ASF F:\VICON\USERDATA\INSTALL\rory3\rory3.ASF
:FULLY-SPECIFIED
:DEGREES
112
root 0.005589988060858961 17.76020221086669 60.22173019420995 1.0276317019100865 2.1931746676091652 0.021506811096453582
lfemur -9.570291816224975 -3.9934422507880614 -22.4674082413209
ltibia 22.452249275854207
lfoot -0.979983459914154 -7.778681733457149
ltoes -8.84999126199869
rfemur -24.819939435546093 1.7924020583440743 22.693447205370056
rtibia 70.49377704844818
rfoot 1.2857187145957854 -11.98119780107215
rtoes 7.02735731052368
lowerback 11.437720962023896 -0.26767634431837956 0.1989386394692314
upperback -1.7007153137304807 -0.23270661470306808 1.2632726669436327
thorax -6.698778328876791 -0.18967718907231756 1.2168065134170458
lowerneck -16.635266211085604 -2.961538736883103 -3.3692801639947754
upperneck 19.719618141756516 -3.275852496030726 2.497411800574101
head 8.899925202601134 -1.591370972769884 1.235874944475869
lclavicle -1.6743800175557044e-15 -3.59131476285072e-15
lhumerus -40.96764099067892 -4.066600152743166 87.64579464440473
lradius 61.915815464051235
lwrist 11.066279159693526
lhand -27.210503485499036 12.685563368907141
lfingers 7.125019999999999
lthumb -1.0090279578613501 42.561731192097874
rclavicle -1.6794376657915138e-15 -3.594874380306215e-15
rhumerus -38.39502298662465 -6.0165171376939846 -86.55830812755532
rradius 58.458035270658144
rwrist 4.904452852084578
rhand -17.582020140597947 29.05892320265385
rfingers 7.125019999999999
rthumb 7.564440677451437 -0.16068665637496235
113
root -0.0019018892162981638 17.76621511587946 60.600516495421914 0.85898671526905 2.5134476765564555 0.14119484232226398
lfemur -7.51906139745441 -3.9813350307909596 -22.87721088283944
ltibia 23.35892710552417
lfoot 0.7239368589845474 -9.582020493559803
ltoes -9.714278414851357
rfemur -25.81486672948238 3.369332949864804 21.85291731100749
rtibia 63.86269885203107
rfoot 2.461080836381936 -12.734447707982373
rtoes 9.478846114158967
lowerback 11.671526520795618 -0.3852542540971093 0.021252401216476757
upperback -1.5731001389217485 -0.41541340538070637 1.3681997604994554
thorax -6.72621014569512 -0.2762941710651643 1.4701963454843652
lowerneck -16.66833829961645 -2.9279684890127866 -3.453571410593816
upperneck 19.727339240349274 -3.194338848406155 2.4562229114544367
head 8.87459803159008 -1.5655827235216813 1.2600935745553927
lclavicle -1.6756187944905286e-15 -3.592194502279741e-15
lhumerus -39.58980704166661 -5.214328785632428 87.80753939797957
lradius 63.909770702576225
lwrist 10.342210671573056
lhand -27.248561432521765 12.788629214460435
lfingers 7.125019999999999
lthumb -0.9980649026433241 42.67418204558482
rclavicle -1.6778133636950577e-15 -3.593725745880327e-15
rhumerus -38.886633110228125 -6.297558444639744 -85.95306764867622
rradius 57.77882017226121
rwrist 5.118807116271865
rhand -17.848267562914085 29.13756246413814
rfingers 7.125019999999999
rthumb 7.391013464181004 -0.20413068304431156
114
root -0.015891096181476355 17.741511632310754 60.75764507788546 0.6163185551295026 3.0915314550924426 0.44027406472912833
lfemur -5.528944612351772 -4.1778657791726195 -23.44884896597018
ltibia 24.399646949011657
lfoot 2.1303966586009073 -11.841169166817547
ltoes -10.297296907529915
rfemur -26.238902579200378 4.591513453279223 20.946155498628997
rtibia 56.779803953204514
rfoot 3.9072698851323047 -13.569082589199803
rtoes 10.097757619090384
lowerback 11.859061058485503 -0.5640350474748506 -0.28711543549015817
upperback -1.3604593799143176 -0.732401609393629 1.4110254806108564
thorax -6.690971883560847 -0.428190295358467 1.7768091735353413
lowerneck -16.73355211482451 -2.8794148059316838 -3.4730911563771336
upperneck 19.685916303772235 -3.1042219302728857 2.3642998923556013
head 8.842382263295107 -1.5323818585439721 1.254319461088954
lclavicle -1.6744368265112236e-15 -3.5913599780110506e-15
lhumerus -38.39825799944711 -6.326043972917862 87.94251283945428
lradius 66.14735397696757
lwrist 10.920483667241758
lhand -27.536883785601024 12.904593977975736
lfingers 7.125019999999999
lthumb -1.1784379973541839 42.82434356990029
rclavicle -1.677686278975637e-15 -3.5936358565134325e-15
rhumerus -39.311849578501956 -6.529543311433592 -85.51985800726034
rradius 57.247479706187505
rwrist 5.086950708143853
rhand -18.038687049624336 29.006801312692332
rfingers 7.125019999999999
rthumb 7.3101859744916124 -0.5394717978380366
115
root -0.03412514017982329 17.69607511285324 60.878284275054284 0.4761394880322942 3.559155129877216 0.6070618540699897
lfemur -3.893618394818562 -4.397298646363256 -23.7213248777508
ltibia 25.695368414206616
lfoot 2.8804816129660766 -14.199438162990692
ltoes -8.856398051357184
rfemur -26.50144163394115 5.453572294004355 20.505741761587707
rtibia 50.4107645104479
rfoot 4.906484329027719 -14.309259445788843
rtoes 9.555638015556976
lowerback 12.014838316408792 -0.7123103219480598 -0.5300300053488802
upperback -1.2031741333981747 -0.9832748034564889 1.502244852210858
thorax -6.702774832123291 -0.5453771147333013 2.1053772000149262
lowerneck -16.734626421221037 -2.8520035765097687 -3.5137160976649207
upperneck 19.658811510038547 -3.050505437078221 2.288750362557695
head 8.81105050054634 -1.5158549624105282 1.2504240675941682
lclavicle -1.6755683123358008e-15 -3.5921611107017306e-15
lhumerus -37.3357587309571 -7.171284966999078 88.0423209699688
lradius 68.44950355458332
lwrist 11.636398387852669
lhand -28.005128800273887 13.00840424914355
lfingers 7.125019999999999
lthumb -1.5126985186861988 43.02585199816457
rclavicle -1.677320325376215e-15 -3.593377080991344e-15
rhumerus -39.632188368600204 -6.718765553277642 -85.19811185885597
rradius 56.853858416519905
rwrist 4.660915026534548
rhand -18.213453767059434 28.942655932172944
rfingers 7.125019999999999
rthumb 7.225310450064787 -0.7430186787644099
